<?xml version="1.0" encoding="UTF-8" standalone="no"?>
<!-- Generator: Adobe Illustrator 15.0.0, SVG Export Plug-In . SVG Version: 6.00 Build 0)  -->
<svg id="Layer_1" xmlns:rdf="http://www.w3.org/1999/02/22-rdf-syntax-ns#" xmlns="http://www.w3.org/2000/svg" enable-background="new 0 0 500 500" xml:space="preserve" height="480" viewBox="0 0 480 480" width="480" version="1.1" y="0px" x="0px" xmlns:cc="http://creativecommons.org/ns#" xmlns:dc="http://purl.org/dc/elements/1.1/"><metadata id="metadata21"><rdf:RDF><cc:Work rdf:about=""><dc:format>image/svg+xml</dc:format><dc:type rdf:resource="http://purl.org/dc/dcmitype/StillImage"/><dc:title/></cc:Work></rdf:RDF></metadata><g id="g3" transform="translate(-10.256,-10)"><rect id="rect5" height="480" width="480" y="10" x="10.256" fill="#c0392b"/><g id="g7" fill="#ecf0f1"><path id="path9" d="m310.12,260.92c-2.287-8.101-5.527-14.913-9.723-20.439-4.195-5.524-9.182-9.74-14.955-12.65-5.775-2.907-12.152-4.361-19.131-4.361-8.973,0-16.807,1.828-23.492,5.483-6.689,3.657-12.609,8.434-17.76,14.333l-2.494-11.841c-0.416-1.91-1.33-3.321-2.742-4.237-1.412-0.913-3.115-1.371-5.109-1.371h-17.98c-0.193-0.087-0.385-0.146-0.578-0.146-0.465,0-1.096,0.35-1.895,1.047-0.797,0.698-1.828,1.463-3.09,2.294-1.264,0.832-2.76,1.595-4.486,2.293-1.73,0.698-3.789,1.047-6.182,1.047-1.93,0-3.725-0.299-5.385-0.897-1.662-0.599-3.107-1.528-4.338-2.792-1.23-1.262-2.193-2.874-2.891-4.835-0.697-1.96-1.047-4.304-1.047-7.029v-67.301h31.207v-7.079h-31.213v-37.883h-4.437c-0.725,0-1.301,0.234-1.729,0.698-0.428,0.466-0.674,0.997-0.738,1.595l-2.369,35.496-16.949,1.196v3.688c0,0.732,0.232,1.297,0.699,1.695,0.463,0.398,1.062,0.599,1.793,0.599h14.258v67.799c0,7.777,1.861,13.527,5.584,17.249,3.723,3.724,8.939,5.584,15.654,5.584,4.188,0,8.225-0.848,12.113-2.543,1.887-0.822,3.607-1.775,5.174-2.855v160.71h30.783v-52.345c3.988,3.906,8.494,6.96,13.523,9.16,5.025,2.201,11.154,3.303,18.383,3.303,8.391,0,15.973-1.683,22.744-5.047,6.771-3.365,12.545-8.039,17.324-14.021,4.777-5.982,8.453-13.043,11.029-21.188,2.574-8.142,3.863-16.99,3.863-26.546,0.002-10.471-1.141-19.755-3.424-27.857zm-30.472,47.11c-1.414,5.443-3.428,9.951-6.045,13.522-2.617,3.574-5.816,6.232-9.596,7.977-3.783,1.745-7.998,2.617-12.65,2.617-4.736,0-9.16-0.851-13.273-2.555-4.113-1.702-7.914-4.715-11.404-9.036v-57.33c3.904-4.901,8.121-8.702,12.65-11.403,4.527-2.699,9.99-4.051,16.389-4.051,4.07,0,7.705,0.748,10.906,2.243,3.197,1.496,5.92,3.863,8.162,7.104,2.244,3.24,3.967,7.458,5.172,12.649,1.205,5.194,1.809,11.528,1.809,19.007-0.001,7.397-0.708,13.816-2.12,19.256z"/><g id="g11"><path id="path13" d="m298.05,126.21h-13.041v48.863h-11.291v-48.863h-12.961v-9.025h37.293v9.025z"/><path id="path15" d="m337.24,160.29,0.436,2.227h0.24l0.438-2.107,9.66-43.218h11.889l-16.182,57.889h-11.77l-16.182-57.889h11.889l9.582,43.098z"/></g></g></g></svg>
