<?xml version="1.0" encoding="utf-8"?>
<!-- Generator: Adobe Illustrator 18.1.1, SVG Export Plug-In . SVG Version: 6.00 Build 0)  -->
<svg version="1.1" id="Layer_1" xmlns="http://www.w3.org/2000/svg" xmlns:xlink="http://www.w3.org/1999/xlink" x="0px" y="0px"
	 viewBox="0 0 640 360" enable-background="new 0 0 640 360" xml:space="preserve">
<g>
	<g>
		<path fill="#A71E23" d="M402.1,147.8c-3.2-0.5-2.7-1.3-6.7-1.9l-4.8-0.5c-5.6-0.5-9.1-0.8-10.1-1.1c-2.9,0-9.1,0-18.4-0.3
			c-9.6,0-16.3,0-19.8-0.3h-26.4l-6.7,0.3l-13.1,0.3c-11.5,0.8-23.8,1.1-33.9,2.4c-1.6,0-7.7,1.1-9.3,1.1
			c-15.2,2.7-25.9,4.3-33.9,12.3c-2.9,4.8-3.7,10.2-4.3,19v2.7c0,0.5,0,1,0,1.5h16.6c0-0.2,0-0.5,0-0.7c0-2.4,0.5-4.5,1.9-6.1
			c1.1-1.9,3.5-3.7,5.6-5.9c6.7-3.2,17.6-6.1,26.7-6.9c12.3-0.8,22.2-1.1,29.9-1.3c1.3-0.3,3.2-0.5,5.6-0.5h1.1c1.3,0,2.4,0,3.2,0.3
			c1.1-0.3,2.7-0.3,5.1-0.3l5.1-0.3h5.3l23.8-0.5h5.3c14.7-0.5,20.6-0.3,34.2-0.3h2.9l0.8,0.3c9.3,0.3,13.9,4.5,13.9,12.6
			c0,3.2-1,6.8-2.6,9.8h18.2c0.3-2.3,0.7-5.3,0.9-9.3c-0.5-6.9-1.3-9.9-3.5-15C410.4,152.3,409.3,150.7,402.1,147.8z"/>
		<path fill="#A71E23" d="M321,135.7c0,0-1.3,2.2,1.3,3.5c2.6,1.3,8.8,0.9,8.4-0.4c-0.4-1.3,0.9-4.8-2.6-5.7
			c-3.5-0.9-1.8-16.3-1.8-16.3V85.9V62.5c0,0-4-6.2-5.7-0.4c-1.8,5.7-0.4,52.9-0.4,52.9S320.5,134.3,321,135.7z"/>
		<path fill="#A71E23" d="M354.9,135.2c0,0,7.5-41,7.9-46.3c0.4-5.3,3.1-9.3,5.7-4c2.6,5.3-4,34.8-4,34.8l-1.3,14.1
			C363.3,133.9,360.6,142.7,354.9,135.2z"/>
		<path fill="#A71E23" d="M388.9,137.9c0,0-3.5,4,4.8,2.2c8.4-1.8,16.3-24.2,16.3-24.2s8.4-21.2-0.9-13.7c-4,9.3-5.7,15-5.7,15
			s-8.8,14.5-11.5,14.5C389.3,131.7,388.9,137.9,388.9,137.9z"/>
		<path fill="#A71E23" d="M412.6,140.9c0,0,21.2-14.5,21.6-19.4c0.4-4.8,10.1-6.6,8.4,0.4c-1.8,7.1-10.6,11-10.6,11l-12.8,10.6
			l-4.4,5.3C414.8,148.9,405.6,148.4,412.6,140.9z"/>
		<path fill="#A71E23" d="M426.7,158.6l26.4-7.5c0,0,10.1-3.5,11-0.4c0.9,3.1-6.6,7.5-9.3,7c-2.6-0.4-15,1.8-16.7,3.1
			c-1.8,1.3-7.1,3.1-7.1,3.1S420.1,165.6,426.7,158.6z"/>
		<path fill="#A71E23" d="M426.7,174.9l35.3,0.4c0,0,10.1-0.4,3.5,4.8c-4.8-0.9-9.3-0.9-9.3-0.9s-26.4-3.1-26.4,0
			C429.8,182.4,419.7,178.8,426.7,174.9z"/>
		<path fill="#A71E23" d="M287,132.1c0,0,2.2,11.9,7,0.4c0.4-12.8-1.3-33.9-1.3-33.9s-4.4-23.4-10.1-14.5c3.1,9.7,2.6,12.3,2.6,12.3
			S288.4,129.5,287,132.1z"/>
		<path fill="#A71E23" d="M244.3,106.1c0,0-6.6-10.6-6.2,0.9c2.2,7.9,5.3,11,5.3,11l11.9,17.2c0,0,9.7,12.3,7.1-1.8
			c-6.2-8.8-11-15-11-15L244.3,106.1z"/>
		<path fill="#A71E23" d="M218.7,144c0,0-16.3-13.7-16.7-16.3c-0.4-2.6-7.5-5.3-5.7,4.4c7.5,8.8,18.5,15.9,18.5,15.9
			s5.3,6.2,7.9-2.6C221.4,143.2,218.7,144,218.7,144z"/>
		<path fill="#A71E23" d="M205.5,170c0,0-25.1-0.9-28.6-1.3c-3.5-0.4-8.8,2.6,0.9,6.6c14.5-0.4,23.4,1.3,23.4,1.3
			S212.6,175.8,205.5,170z"/>
	</g>
	<g>
		<path fill="#A71E23" d="M6.1,201.1h0.5c0.8,0,1.4,0,1.9-0.1c0.4,0.1,0.9,0.1,1.5,0.1c0.9,0,1.7,0,2.3-0.1c1.9,0,3.5,0,4.5,0.1
			c2.3,0,4.1,0,5.3,0.1c0.3,0,0.6,0,1.2,0.1h1.2c1.2,0,3.1,0,5.4,0.1h5.8c2.2,0,3.7,0.3,4.7,0.6c0.3,0.1,0.4,0.8,0.4,2.1v0.6
			c0.1,0.3,0.1,0.7,0.1,1c0,0.3,0,0.6-0.1,1v0.9c0,0.4,0,0.6,0.1,0.9c0,0.4-0.4,0.6-1,0.6h-0.3c-0.1,0.1-0.4,0.3-1,0.3h-1.2
			c-0.5-0.1-0.9-0.1-1-0.1h-9.9l0.5,24.2c0,1.4,0.1,2.6,0.3,5v3.6v3.6c0,3.1,0.1,5.8,0.3,8v6.2c0.4,16.1,0.5,28.7,0.5,37.7v0.1
			c0,1.2-1.3,1.7-3.7,1.7c-1,0-1.9-0.1-2.8-0.3c-0.9-0.3-1.3-0.5-1.3-0.9c-0.3-1.2-0.4-3.1-0.4-5.8c-0.1-0.4-0.1-1.2-0.1-2.3
			c-0.1-1-0.3-1.9-0.3-2.7v-0.6c0-0.1,0-0.5-0.1-0.9v-1.3v-0.8c0.1-0.1,0.1-0.4,0.1-0.9v-2.3c-0.1-0.9-0.1-3.6-0.1-8.4
			c-0.1-3.7-0.3-10.1-0.4-19.1l-0.4-20c0-0.6,0-1.5-0.1-2.7V228v-6.1c-0.1,0-0.1-0.1-0.1-0.5v-7.7c0-0.4,0-0.9-0.1-1.6v-1.3
			c0.1-0.1,0.1-0.3,0.1-0.4v-0.4c-1-0.1-1.7-0.3-2.1-0.3h-1.3c-0.5,0.1-0.9,0.1-1.2,0.1c-0.1,0-0.6-0.1-1.5-0.3
			c-0.8-0.1-1.3-0.1-1.7-0.1h-0.4c-0.4,0-1,0.1-1.9,0.3c-0.9,0.1-1.5,0.3-1.9,0.3c-0.6,0-1.2-0.1-1.7-0.3v-0.5
			c0-0.9,0.1-3.6,0.4-7.9C4.9,201.3,5.3,201.1,6.1,201.1z"/>
		<path fill="#A71E23" d="M62.5,203.1c1.4,0.6,2.7,1.3,3.7,1.9c0.9,0.6,1.8,1.4,2.7,2.6c0.6,0.9,1.4,2.1,2.1,3.2
			c1.3,2.5,2.1,8.7,2.3,18.6v2.8c0.1,1.4,0.1,2.5,0.1,3.4v3.6c0.1,1.7,0.1,3.1,0.3,4.3v2.7v6.3c0.1,2.5,0.1,5.9,0.1,10.3v3.1v5.7
			c0,0.8,0,1.9-0.1,3.5v3.4c-0.1,3.4-0.4,5.8-0.5,7.2c-0.1,0.6-0.1,1.7-0.4,2.8c0,1.2-0.1,1.9-0.1,2.3c-0.6,1.9-1,3-1.3,3.4
			c-0.3,0.6-0.6,1.5-1.3,2.5l-0.6,0.6c-0.4,0.3-0.6,0.4-1,0.5c-0.1,0.1-0.5,0.4-1,0.5c-0.5,0.1-0.9,0.4-1,0.5
			c-1.9,0.6-4.1,0.9-6.6,0.9h-1.2c-1.9-0.1-3.4-0.4-4.3-0.6c-1.4-0.4-2.6-0.8-3.6-1.4c-0.1-0.1-0.4-0.4-0.6-0.8
			c-0.3-0.4-0.5-0.6-0.6-0.8c-0.6-0.6-1.2-1.6-1.4-2.5c-0.3-0.5-0.6-1.7-1.2-3.4c-0.6-2.2-1.2-5.2-1.7-9c0-0.4-0.1-1.2-0.3-2.2
			c-0.1-1-0.1-1.8-0.3-2.3c-0.1-0.5-0.1-1.3-0.3-2.5c-0.1-1-0.3-1.8-0.4-2.3c0.1-0.4,0.1-1,0.1-1.8c0-0.4,0-0.9-0.1-1.7v-1.7v-0.6
			c-0.1-0.6-0.1-1.5-0.1-2.8c0-1.3,0-2.3-0.1-3v-6.3v-5.9c0-2.8,0-4.9,0.1-6.2v-1.3V238c0.1-1.2,0.1-1.9,0.1-2.6
			c0.3-5.8,0.5-10.7,0.8-14.6c0.1-0.5,0.3-2.2,0.5-4.9c0.1-0.6,0.3-1.4,0.4-2.3c0.1-0.9,0.3-1.6,0.4-1.8c0.1-0.3,0.4-0.8,0.5-1.4
			c0.3-0.6,0.4-1,0.5-1.2c0.5-1,0.9-1.7,1.3-2.1c0.6-0.8,1.8-1.7,3.7-2.8c1-0.5,2.1-0.9,3.1-1.2c0.6-0.1,1.6-0.4,3-0.5
			C60.2,202.7,61.6,203,62.5,203.1z M52.7,217.7c-0.1,0.3-0.1,0.5-0.1,0.8c0,1,0,1.9-0.1,2.6c-0.1,0.3-0.1,0.6-0.1,1v0.6
			c0,0.6-0.1,1.3-0.3,1.7c0,0.3,0,0.6,0.1,1c0.1,0.4,0.1,0.8,0.1,0.9v0.3v0.4c0,0.5-0.1,1.3-0.3,2.3c0.1,0.5,0.3,1.3,0.3,2.5v2.6
			v5.7v5.8v5.3v2.5c0,1.2,0,1.9,0.1,2.5c-0.1,0.4-0.1,1.2-0.1,2.1c0,1.2,0,2.1,0.1,2.7c0,3.8,0.1,8.5,0.4,14.5
			c0.1,1.7,0.3,3.6,0.6,5.8c0.3,1.9,0.6,3.4,1.3,4.5c0,0.4,0.4,1.5,1.2,3.4c0.6,0.9,1.2,1.5,1.8,1.9c0.6,0.6,1.4,0.9,2.5,0.9
			c0.6,0,1.3-0.1,1.9-0.4c0.9-0.4,1.7-1.2,2.2-2.6c0.4-1.4,0.8-4.1,1-8.4c0.1-0.9,0.1-2.6,0.1-5c0.1-1.4,0.1-3.7,0.1-6.7v-3.1v-2.2
			v-1.2c0.1-0.6,0.1-1.8,0.1-3.5c0-0.6,0-1.3-0.1-2.2v-1.9c0-1.9,0-3.4-0.1-4.3v-7.9c0-3,0-5.2-0.1-6.5v-3c0-1.2,0-2.1,0.1-2.6v-4.7
			c-0.1-6.3-0.5-10.3-1.4-11.9c-0.5-0.9-1.4-1.7-2.6-2.3c-1.2-0.6-2.5-1-3.6-1c-3.2,0-4.9,2.2-5.2,6.7V217.7z"/>
		<path fill="#A71E23" d="M122.7,206.6c0.3,3,0.4,5.4,0.5,7.1l0.3,1.7l0.4,8.7c0.1,6.6,0.4,18.5,0.5,35.7v2.8
			c0.1,1.3,0.1,2.2,0.1,2.8v1.9v3.5v1.6c0,1.7,0,3-0.1,3.6c0.1,0.6,0.3,5.3,0.3,6.5v1.8v8.8v2.6c-0.1,0.1-0.1,0.4-0.1,0.6v0.3
			l0.3,0.5c-0.1,0.1-0.9,0.5-2.3,0.9c-1.9,0-3.2-0.1-4-0.4c-1.4-0.5-2.2-0.9-2.2-1.3v-2.5c0-0.3,0-0.8-0.1-1.4v-1.7v-3.9
			c0.1-0.4,0.1-1.2,0.1-2.1c0-1.2,0-1.9-0.1-2.5v-8.8l-0.3-22.9v-6.1c0-0.6,0-1.6-0.1-2.7v-2.7v-0.9v-1.8c0.1-0.8,0.1-1.4,0.1-1.8
			c-0.1-0.9-0.1-2.2-0.1-3.6l0.3-7.4l-0.8,5.6c-0.1,1.2-0.4,2.5-0.8,3.9c-0.1,0.4-0.1,0.9-0.3,1.6c-0.1,0.8-0.1,1.4-0.3,2.1
			c-0.1,0.6-0.3,1.3-0.4,1.8c-0.1,0.6-0.6,2.5-1.3,5.6l-1,5.2c-0.4,1.7-0.6,2.8-0.8,3.6c-0.8,3.2-2.2,7.1-4.1,11.6
			c-1.2,0.4-2.3,0.6-3.7,0.6c-0.4,0-0.8,0-0.9-0.1c-0.3-0.1-0.8-1.8-1.7-4.8c-0.1-0.5-0.4-1.4-0.8-2.6c-0.3-1.2-0.5-1.9-0.6-2.3
			c-0.9-3-1.4-4.9-1.5-5.9c-0.3-0.8-0.5-1.8-0.9-3.2c-0.4-1.3-0.6-2.2-0.8-2.7l-1.5-5.8l-1.4-5.6l-1.4-5.2c-0.4-1.2-0.5-1.8-0.6-1.9
			l0.4,2.7c0,0.4,0,1.3,0.1,2.8c0.1,1.7,0.1,3.7,0.3,6.5c0.6,12.3,0.8,17.8,1,32.6c0.1,8.5,0.4,18.3,0.5,22.2v1.5
			c0.1,0.6,0.1,1.2,0.1,1.3v0.3v0.5v0.3v0.4v0.1c-0.1,0.4-0.9,0.8-2.3,1.3c-0.6,0.1-1.9,0.1-3.9,0.1c-1.4-0.1-2.3-0.4-2.5-0.6
			c0-14.9-0.3-31.4-0.6-42.1l-0.3-7.5c-0.4-6.1-0.3-12.1-0.5-18.1c0-0.9-0.1-2.6-0.3-4.8l-0.1-4.1l0.3-8.7c0-1.8-0.1-5.8-0.1-7.8
			v-0.4c0.4-0.4,1-0.6,1.9-0.6h0.5c0.5-0.1,1-0.3,1.4-0.3c0.3,0,0.8,0.1,1.4,0.3c0.9,0,1.8,0.4,2.5,1l1.7,3.4
			c0.3,0.9,0.8,2.3,1.4,4.4c1.9,4.4,1.9,4.9,3.9,11.2c0.1,0.4,0.3,1.2,0.6,2.3c0.4,1.2,0.6,2.1,0.8,2.7l1.3,4.9c0.3,1,0.5,2.3,1,3.7
			l0.9,3.5c0.3,0.9,0.5,1.9,0.9,2.8c0.3,0.9,0.5,1.5,0.8,2.1c0.1,0.4,0.4,0.6,0.5,0.6c0.3-0.1,0.6-1.2,1.3-3.4
			c0.5-2.2,0.9-4.5,1.3-6.8c0-0.3,0.1-1,0.3-2.3c0.3-1.3,0.5-2.3,0.6-3.2c0-0.4,0.3-2.2,0.9-5.7c0.1-0.6,0.5-1.7,0.5-3
			c0.3-1.3,0.3-2.3,0.4-3c3-13.2,3.1-14.5,4.3-15.1c0.3-0.1,0.8-0.3,1.6-0.3c0.6,0,1.3,0,1.7,0.1c1.4,0,2.6,0.3,3.5,0.6
			c1.4,1,2.1,1.6,2.2,1.7L122.7,206.6z"/>
		<path fill="#A71E23" d="M151.9,203.1c1.4,0.6,2.7,1.3,3.7,1.9c0.9,0.6,1.8,1.4,2.7,2.6c0.6,0.9,1.4,2.1,2.1,3.2
			c1.3,2.5,2.1,8.7,2.3,18.6v2.8c0.1,1.4,0.1,2.5,0.1,3.4v3.6c0.1,1.7,0.1,3.1,0.3,4.3v2.7v6.3c0.1,2.5,0.1,5.9,0.1,10.3v3.1v5.7
			c0,0.8,0,1.9-0.1,3.5v3.4c-0.1,3.4-0.4,5.8-0.5,7.2c-0.1,0.6-0.1,1.7-0.4,2.8c0,1.2-0.1,1.9-0.1,2.3c-0.6,1.9-1,3-1.3,3.4
			c-0.3,0.6-0.6,1.5-1.3,2.5l-0.6,0.6c-0.4,0.3-0.6,0.4-1,0.5c-0.1,0.1-0.5,0.4-1,0.5c-0.5,0.1-0.9,0.4-1,0.5
			c-1.9,0.6-4.1,0.9-6.6,0.9H148c-1.9-0.1-3.4-0.4-4.3-0.6c-1.4-0.4-2.6-0.8-3.6-1.4c-0.1-0.1-0.4-0.4-0.6-0.8
			c-0.3-0.4-0.5-0.6-0.6-0.8c-0.6-0.6-1.2-1.6-1.4-2.5c-0.3-0.5-0.6-1.7-1.2-3.4c-0.6-2.2-1.2-5.2-1.7-9c0-0.4-0.1-1.2-0.3-2.2
			c-0.1-1-0.1-1.8-0.3-2.3c-0.1-0.5-0.1-1.3-0.3-2.5c-0.1-1-0.3-1.8-0.4-2.3c0.1-0.4,0.1-1,0.1-1.8c0-0.4,0-0.9-0.1-1.7v-1.7v-0.6
			c-0.1-0.6-0.1-1.5-0.1-2.8c0-1.3,0-2.3-0.1-3v-6.3v-5.9c0-2.8,0-4.9,0.1-6.2v-1.3V238c0.1-1.2,0.1-1.9,0.1-2.6
			c0.3-5.8,0.5-10.7,0.8-14.6c0.1-0.5,0.3-2.2,0.5-4.9c0.1-0.6,0.3-1.4,0.4-2.3c0.1-0.9,0.3-1.6,0.4-1.8c0.1-0.3,0.4-0.8,0.5-1.4
			c0.3-0.6,0.4-1,0.5-1.2c0.5-1,0.9-1.7,1.3-2.1c0.6-0.8,1.8-1.7,3.7-2.8c1-0.5,2.1-0.9,3.1-1.2c0.6-0.1,1.6-0.4,3-0.5
			C149.6,202.7,151,203,151.9,203.1z M142.1,217.7c-0.1,0.3-0.1,0.5-0.1,0.8c0,1,0,1.9-0.1,2.6c-0.1,0.3-0.1,0.6-0.1,1v0.6
			c0,0.6-0.1,1.3-0.3,1.7c0,0.3,0,0.6,0.1,1c0.1,0.4,0.1,0.8,0.1,0.9v0.3v0.4c0,0.5-0.1,1.3-0.3,2.3c0.1,0.5,0.3,1.3,0.3,2.5v2.6
			v5.7v5.8v5.3v2.5c0,1.2,0,1.9,0.1,2.5c-0.1,0.4-0.1,1.2-0.1,2.1c0,1.2,0,2.1,0.1,2.7c0,3.8,0.1,8.5,0.4,14.5
			c0.1,1.7,0.3,3.6,0.6,5.8c0.3,1.9,0.6,3.4,1.3,4.5c0,0.4,0.4,1.5,1.2,3.4c0.6,0.9,1.2,1.5,1.8,1.9c0.6,0.6,1.4,0.9,2.5,0.9
			c0.6,0,1.3-0.1,1.9-0.4c0.9-0.4,1.7-1.2,2.2-2.6c0.4-1.4,0.8-4.1,1-8.4c0.1-0.9,0.1-2.6,0.1-5c0.1-1.4,0.1-3.7,0.1-6.7v-3.1v-2.2
			v-1.2c0.1-0.6,0.1-1.8,0.1-3.5c0-0.6,0-1.3-0.1-2.2v-1.9c0-1.9,0-3.4-0.1-4.3v-7.9c0-3,0-5.2-0.1-6.5v-3c0-1.2,0-2.1,0.1-2.6v-4.7
			c-0.1-6.3-0.5-10.3-1.4-11.9c-0.5-0.9-1.4-1.7-2.6-2.3c-1.2-0.6-2.5-1-3.6-1c-3.2,0-4.9,2.2-5.2,6.7V217.7z"/>
		<path fill="#A71E23" d="M191.7,206.4c0.6,0.6,1.2,1.3,1.7,2.1c1.9,2.5,3.2,7.2,3.9,14.2c0.1,0.6,0.3,2.8,0.4,10.9v2.6
			c0,1.2,0,2.5-0.1,3.7c-0.1,1.3-0.3,2.7-0.4,4.3c-0.1,1.4-0.3,2.6-0.4,3.2c-0.1,1.2-0.3,2.2-0.5,3.1c-0.1,0.9-0.4,1.6-0.6,2.2
			c-0.1,0.5-0.5,1.2-1.2,1.8c-0.5,0.6-0.9,1.2-1.2,1.3c-0.1,0.3-0.8,0.8-1.7,1.6c-0.9,0.8-1.4,1.3-1.7,1.5l2.7,3.4
			c0.3,0.4,0.6,1,1.3,1.9c0.6,0.9,0.9,1.5,1,1.8l0.8,1.5c0.4,0.8,0.6,1.4,0.6,1.9c0.1,0.5,0.3,1.3,0.5,2.3c0.3,1,0.4,2.1,0.4,3.2
			c0.1,1.2,0.1,2.5,0.3,4c0.1,1.5,0.1,3.4,0.1,5.4l0.3,9.6v2.8c0,0.3,0,0.6-0.1,1c0,0.4,0,0.8-0.1,0.9c0,0.3-0.8,0.6-2.3,1h-0.8
			c-0.4,0-0.9-0.1-1.6-0.3c-0.6-0.1-1-0.1-1.2-0.1c-1.4,0-2.1-0.3-2.1-0.6v-1.4v-5.3c0.1-2.5,0.1-4.3,0.1-5.6v-1.9
			c0-3.1-0.3-6.1-0.6-8.9c-0.6-2.7-1.6-5.4-2.8-8c-1.3-2.6-2.8-4-4.7-4.3c-0.1,0-0.4-0.1-0.8-0.3c-0.4-0.1-0.6-0.3-0.9-0.3h-0.3
			c-0.1,0.1-0.1,0.1-0.3,0.1c-0.1,0.1-0.3,0.5-0.4,1c0.1,0.1,0.1,0.6,0.1,1.7c-0.1,1.2-0.1,2.1-0.1,3v0.4v2.8v0.6v0.6
			c0,2.5,0,4.7,0.1,6.8l0.1,11.4c0.1,2.1,0.1,3.5,0.3,4.1c-0.1,1-0.1,1.5-0.3,1.5c0,0.8-0.8,1.3-2.5,1.4c-0.4,0.1-1.4,0.3-3.1,0.4
			c-1.6-0.1-2.3-0.4-2.3-0.6v-5.6V288V282c0.1-2.2,0.1-4.1,0.1-5.6v-1.7c0-0.9,0-1.7,0.1-2.3c-0.1-0.6-0.1-1.5-0.3-2.8v-2.7v-0.1
			v-1.2c0.1-0.4,0.1-0.8,0.1-0.9v-0.1l-0.1-0.6c0.1-0.9,0.1-1.8,0.1-2.8v-2.3v-1.3c0-1.9,0-4.8-0.1-8.8v-9v-0.9l-0.1-3.9v-0.8v-1.9
			c0.1-0.9,0.1-1.7,0.1-2.1c0-0.4,0-0.6-0.1-1v-5.3v-3.1c0-12.9,0.3-13.4,0.6-17.6c0.1-1.2,1.7-0.6,2.1-0.8c0.9-0.1,1.7-0.1,2.6-0.1
			h2.2c0.8,0,1.4-0.1,1.9,0c2.6,0.4,2.5,0.1,4.9,0.6c1.9,0.8,3.1,1.4,3.6,1.8C189.8,204.8,190.5,205.4,191.7,206.4z M179.6,234.7
			c0,2.7,0,2.6-0.1,3.7l-0.1,8.5v0.8v2.2v0.8c0.1,2.2,0.4,3.5,0.8,4c0.1,0,0.3,0,0.4,0.1h0.4c1.9,0,3.6-0.5,5-1.5
			c1.4-1,2.6-3.7,3.4-8c0.8-4.4,1.2-7.1,1.2-12.3c0-5.6-0.4-9.8-1.2-13c-0.1-1.9-1.7-6.9-2.2-7.4c-0.1-0.3-0.5-0.6-1-1.2
			c-0.5-0.5-0.8-0.9-0.9-1c-1.2-0.6-3.1-0.9-5.2-0.9c-0.4,0-0.5,0.3-0.6,0.6c-0.3,0.6-0.4,1.9-0.4,3.6c0,0.3,0,0.5,0.1,0.9
			c0,0.9,0.1,3.2,0.1,6.8c0.3,3.6,0.3,6.7,0.4,9.4V234.7z"/>
		<path fill="#A71E23" d="M232.4,210.1c1.2,3.1,1.7,7.6,1.7,13.7c0,0.6,0,1.6-0.1,2.8v2.6c-0.3,3.2-0.4,4.9-0.4,5v0.6
			c0,0.5,0,1.3-0.1,2.1c-0.1,0.9-0.1,1.5-0.1,1.8c-0.1,1-0.4,2.6-0.8,4.4c-1,5.9-4.1,10.9-9.4,14.7l5.3,2.8
			c3.7,2.1,5.7,10.7,5.7,25.8c0,3.7,0,6.5-0.1,8c0,1.3,0,2.3-0.1,3c0,1,0.1,1.7,0.3,2.1c-0.5,0.5-1.2,0.8-1.9,0.8h-0.3h-2.5h-1.3
			c-1.3-0.3-1.9-0.5-1.9-0.8c0-0.5,0-2.2-0.1-5.2c-0.1-3.1-0.3-5.9-0.4-8.5c-0.6-9-1.3-14.6-1.9-16.4c-0.6-1.5-1.6-2.8-2.7-3.6
			c-3.2-1.9-5.3-2.8-6.2-2.8c-0.1,0-0.3,0.4-0.4,1.2c-0.3,0.5-0.4,1.5-0.4,3.1v0.5c0,0.3,0,1.7-0.1,4v4.3c-0.1,1-0.1,2.8-0.1,5.4
			c0,3.1,0,5.4-0.1,7.2c0,1.8,0,3-0.1,3.7v1.2v1.9v0.8c0.1,0.3,0.1,0.5,0.1,0.6c0,0.1,0,0.3-0.1,0.5v0.4c0,0.4-0.8,0.8-2.3,1.2
			c-0.5,0-1,0.1-1.6,0.1c-2.8,0-4.3-0.3-4.4-0.8c-0.1-0.6-0.1-1.9-0.1-3.9v-4.3c0.1-1.6,0.1-3.7,0.3-6.6c0.1-2.8,0.1-5.4,0.3-7.9
			c0-1,0.1-2.7,0.3-4.9v-1.7v-3.6v-4.8c0.1-2.3,0.1-4,0.1-5.3c0-0.3,0-0.6,0.1-1v-0.9v-0.9c-0.1-0.4-0.1-0.6-0.1-0.9
			c0-0.5,0-1,0.1-1.7v-1.4v-0.8c0.1-1.8,0.3-3.1,0.3-4c-0.1-1-0.1-2.6-0.1-4.4v-9v-4c0-2.5,0.1-4.3,0.3-5.4
			c-0.1-1.4-0.3-2.3-0.3-2.8c0-0.4,0-0.9,0.1-1.7v-1.8c0.1-1.3,0.1-3,0.1-4.9c0.1-4.1,0.5-6.3,1.2-6.6c0.5-0.1,1.4-0.3,2.8-0.4
			c2.5-0.3,4.9-0.4,7.5-0.4c0.4,0,0.8-0.1,1-0.1l4.3,0.4c0.8,0.1,1.9,0.5,3.4,1C229.4,204.9,231.2,207,232.4,210.1z M214.2,210.8
			c-0.3,1.5-0.4,2.8-0.4,4.1c0,0.9-0.1,3.7-0.1,8.4c-0.3,4.7-0.3,7.5-0.3,11.2c0,6.2,0,10.3,0.1,12.7c0.1,0.5,0.1,1.3,0.1,2.3v0.9
			c0.1,0.5,0.4,0.9,0.5,1.3l0.6,0.3c0.1,0,0.5-0.1,1.4-0.1c0.9-0.1,1.6-0.4,1.9-0.6c0-0.1,0.1-0.3,0.5-0.5l1.2-0.9
			c0.4-0.4,0.8-0.6,1-0.9c1.8-2.2,3.1-4.7,3.9-7.5c1.2-4.4,1.8-9.4,1.8-18c0-4.9-0.3-8.3-1.4-10.5c-1.3-2.5-3.5-3.4-7.4-3.4
			c-1.6,0-2.5-0.1-2.6-0.3C214.7,209.5,214.3,210.1,214.2,210.8z"/>
		<path fill="#A71E23" d="M261.2,203.1c1.4,0.6,2.7,1.3,3.7,1.9c0.9,0.6,1.8,1.4,2.7,2.6c0.6,0.9,1.4,2.1,2.1,3.2
			c1.3,2.5,2.1,8.7,2.3,18.6v2.8c0.1,1.4,0.1,2.5,0.1,3.4v3.6c0.1,1.7,0.1,3.1,0.3,4.3v2.7v6.3c0.1,2.5,0.1,5.9,0.1,10.3v3.1v5.7
			c0,0.8,0,1.9-0.1,3.5v3.4c-0.1,3.4-0.4,5.8-0.5,7.2c-0.1,0.6-0.1,1.7-0.4,2.8c0,1.2-0.1,1.9-0.1,2.3c-0.6,1.9-1,3-1.3,3.4
			c-0.3,0.6-0.6,1.5-1.3,2.5l-0.6,0.6c-0.4,0.3-0.6,0.4-1,0.5c-0.1,0.1-0.5,0.4-1,0.5c-0.5,0.1-0.9,0.4-1,0.5
			c-1.9,0.6-4.1,0.9-6.6,0.9h-1.2c-1.9-0.1-3.4-0.4-4.3-0.6c-1.4-0.4-2.6-0.8-3.6-1.4c-0.1-0.1-0.4-0.4-0.6-0.8
			c-0.3-0.4-0.5-0.6-0.6-0.8c-0.6-0.6-1.2-1.6-1.4-2.5c-0.3-0.5-0.6-1.7-1.2-3.4c-0.6-2.2-1.2-5.2-1.7-9c0-0.4-0.1-1.2-0.3-2.2
			c-0.1-1-0.1-1.8-0.3-2.3c-0.1-0.5-0.1-1.3-0.3-2.5c-0.1-1-0.3-1.8-0.4-2.3c0.1-0.4,0.1-1,0.1-1.8c0-0.4,0-0.9-0.1-1.7v-1.7v-0.6
			c-0.1-0.6-0.1-1.5-0.1-2.8c0-1.3,0-2.3-0.1-3v-6.3v-5.9c0-2.8,0-4.9,0.1-6.2v-1.3V238c0.1-1.2,0.1-1.9,0.1-2.6
			c0.3-5.8,0.5-10.7,0.8-14.6c0.1-0.5,0.3-2.2,0.5-4.9c0.1-0.6,0.3-1.4,0.4-2.3c0.1-0.9,0.3-1.6,0.4-1.8c0.1-0.3,0.4-0.8,0.5-1.4
			c0.3-0.6,0.4-1,0.5-1.2c0.5-1,0.9-1.7,1.3-2.1c0.6-0.8,1.8-1.7,3.7-2.8c1-0.5,2.1-0.9,3.1-1.2c0.6-0.1,1.6-0.4,3-0.5
			C258.9,202.7,260.3,203,261.2,203.1z M251.4,217.7c-0.1,0.3-0.1,0.5-0.1,0.8c0,1,0,1.9-0.1,2.6c-0.1,0.3-0.1,0.6-0.1,1v0.6
			c0,0.6-0.1,1.3-0.3,1.7c0,0.3,0,0.6,0.1,1c0.1,0.4,0.1,0.8,0.1,0.9v0.3v0.4c0,0.5-0.1,1.3-0.3,2.3c0.1,0.5,0.3,1.3,0.3,2.5v2.6
			v5.7v5.8v5.3v2.5c0,1.2,0,1.9,0.1,2.5c-0.1,0.4-0.1,1.2-0.1,2.1c0,1.2,0,2.1,0.1,2.7c0,3.8,0.1,8.5,0.4,14.5
			c0.1,1.7,0.3,3.6,0.6,5.8c0.3,1.9,0.6,3.4,1.3,4.5c0,0.4,0.4,1.5,1.2,3.4c0.6,0.9,1.2,1.5,1.8,1.9c0.6,0.6,1.4,0.9,2.5,0.9
			c0.6,0,1.3-0.1,1.9-0.4c0.9-0.4,1.7-1.2,2.2-2.6c0.4-1.4,0.8-4.1,1-8.4c0.1-0.9,0.1-2.6,0.1-5c0.1-1.4,0.1-3.7,0.1-6.7v-3.1v-2.2
			v-1.2c0.1-0.6,0.1-1.8,0.1-3.5c0-0.6,0-1.3-0.1-2.2v-1.9c0-1.9,0-3.4-0.1-4.3v-7.9c0-3,0-5.2-0.1-6.5v-3c0-1.2,0-2.1,0.1-2.6v-4.7
			c-0.1-6.3-0.5-10.3-1.4-11.9c-0.5-0.9-1.4-1.7-2.6-2.3c-1.2-0.6-2.5-1-3.6-1c-3.2,0-4.9,2.2-5.2,6.7V217.7z"/>
		<path fill="#A71E23" d="M339.9,203c-0.1,0-0.1,0.1-0.1,0.3c-0.1,0.1-0.1,0.3-0.3,0.4c0.1,0.4,0.3,0.6,0.3,0.8c0,0.1-0.1,0.5-0.3,1
			c0.1,0.3,0.1,0.6,0.1,1c0,0.3,0,0.6-0.1,1.3c-0.1,0.6-0.3,1.2-0.3,1.4v1c0,1.4,0,2.5-0.1,3.2c-0.6,7.2-1.2,13.2-1.6,18
			c-0.1,0.6-0.1,1.5-0.3,2.7c-0.1,1.3-0.3,2.2-0.3,2.7c0,0.1,0,0.9-0.1,2.5c-0.1,1.4-0.3,2.6-0.3,3.2l-0.6,5.8
			c-1.7,18.6-3.5,32.7-5.2,42.1c-0.4,2.2-0.6,3.4-0.8,3.5c0,0.4-0.3,1.6-0.8,3.5c-0.1,0.1-0.8,0.4-1.7,0.8h-0.4
			c-0.1-0.1-0.3-0.1-0.4-0.1c-0.4,0-0.9,0.1-1.6,0.3c-0.6,0.1-1,0.3-1.2,0.3c-2.5-0.4-3.9-0.5-4-0.6c-1-0.4-1.7-0.8-1.8-1.3
			c-3-8.4-5-16.7-5.9-24.9c-0.1-0.9-0.6-7.2-1.6-18.7c-1-11.6-1.8-19-2.3-22.2c-0.4,3.4-0.9,9.8-1.5,19.5
			c-0.8,9.7-1.3,16.3-1.7,19.5l-0.4,5c-0.3,1.7-0.4,3.2-0.4,4.9c-0.1,0.4-0.3,1.8-0.5,4.3l-0.4,4c-0.5,5-0.9,8.1-1.3,9.3
			c-0.1,0.1-0.9,0.3-2.3,0.3c-0.4,0.1-1,0.1-2.1,0.1c-1,0-1.8,0-2.2-0.1h-0.8c-0.5,0-1.2,0-1.9-0.1c-0.9-0.1-1.4-0.1-1.8-0.1
			c-1.2-0.4-1.8-0.5-1.8-0.6c-0.3-0.3-0.5-1-0.9-2.3c-0.1-0.4-0.3-1.4-0.6-3.1c-0.6-4.3-1.6-10.7-2.5-19.5l-0.3-2.3l-0.5-3.2
			c0-0.4,0-1-0.1-1.9l-0.4-2.2c-0.1-0.9-0.3-2.5-0.6-4.8l-2.8-21.4c-0.4-2.5-0.6-4.4-0.8-5.9c-0.4-0.8-0.5-1.8-0.5-3.2
			c0-0.1,0-0.4,0.1-0.8V225c-0.1-0.6-0.5-2.3-1-5.2l-1.8-13.8c-0.1-1-0.3-1.7-0.3-1.9v-0.4v-0.5c0-0.1,0-0.3-0.1-0.3h-0.1
			c0-0.6,0.8-1,2.2-1.3c1.8-0.5,3-0.8,3.5-0.8h0.4c0.1,0.1,0.3,0.1,0.4,0.1c0.1-0.1,0.5-0.1,0.9-0.1c1,0,1.7,0.3,1.8,0.6
			c0.4,0.5,1.3,6.3,2.6,17.4c0.1,1.2,0.4,2.8,0.5,5.2l0.4,2.1c0.1,1.4,0.4,2.5,0.5,3.1c0.1,0.6,0.1,1.6,0.3,2.8
			c0.1,1.3,0.3,2.2,0.4,2.8l1.3,11.5c0.3,1.7,0.4,3.4,0.4,4.9v1c0.3,0.9,0.5,1.9,0.6,3.4c0.1,1.4,0.3,2.2,0.4,2.6l0.6,5.4
			c0.9,9.2,1.6,14.3,1.8,15.2c0.3,1.4,0.5,2.1,0.8,2.1c0.8,0,2.1-12,4-36.2l0.6-8.8c0.3-1.9,0.5-5.2,0.9-9.4
			c0.3-5.2,0.5-8.3,0.6-9.3c0.1-2.6,0.4-4.4,0.6-5.6l0.8-4.1c0.1-0.5,1.3-0.8,3.4-0.8c3.5,0,5.2,0.4,5.2,1v0.8
			c0,2.5,0.5,5.9,1.6,10.5c0.5,2.2,1.2,5.6,1.9,10.2c0.1,0.5,0.1,1.3,0.3,2.2c0.1,0.9,0.3,1.7,0.4,2.1c0.4,1.4,0.6,3.1,0.6,4.8
			c0.1,0.6,0.3,2.1,0.6,4.3l0.5,4.8c0.5,3.6,1.2,8.4,1.8,14.5c0.6,6.1,1.2,10.1,1.4,11.9c0.3,1.3,0.4,2.5,0.4,3.5
			c0.3,0.9,0.4,1.9,0.4,3.1c0.1,0.1,0.1,0.5,0.3,1c0.1,0.5,0.3,0.8,0.3,0.9c0.3,0.9,0.4,1.3,0.4,1.4c0.1,0.1,0.3,0.4,0.4,0.5
			c0.1-0.1,0.1-0.1,0.1-0.3l0.1-0.1c0.1-0.5,0.3-0.9,0.3-1v-0.3c0.1-0.3,0.1-0.6,0.3-1.2c0.1-0.4,0.3-0.8,0.4-0.9v-0.4v-0.9
			c0.1-0.4,0.1-0.8,0.1-1v-0.5c0-0.4,0-0.9,0.1-1.8l0.4-1.9c0.1-1.5,0.4-3.4,0.5-5.4l0.6-7.8l0.6-8c0.1-2.2,0.4-3.6,0.8-4.4
			c0-0.4,0-0.9-0.1-1.4v-1.3v-1.3c0.1-0.5,0.1-0.9,0.1-1.2c0.1-0.6,0.1-1.6,0.1-2.7l0.3-2.7c0.1-2.2,0.3-4.1,0.4-5.6
			c0.3-0.9,0.4-2.1,0.4-3.7v-1.9c0.1-1.8,0.4-4.1,0.8-6.8c0.3-3.2,1-9,2.2-17.2c0.1-0.4,0.8-0.6,2.2-0.8c0.9,0,2.2,0.1,4.1,0.3
			c1.2,0.1,1.8,0.5,1.9,0.9H339.9z"/>
		<path fill="#A71E23" d="M397.1,210.3c0.4,1.9,0.6,5.4,0.8,10.3v4.6l0.1,2.7v4.3v3v2.3c0,6.3-0.3,11.6-0.9,15.8
			c-0.1,0.1-0.3,0.6-0.5,1.3c-0.3,0.8-0.4,1.3-0.5,1.7l-0.6,1.3c-0.3,0.5-0.5,0.9-0.6,1.2c-1,1.4-2.3,2.6-3.9,3.6
			c-1.4,0.9-4,1.4-7.8,1.4H382c-0.4,0-0.6,1-0.6,3.1v3.1c0.1,2.5,0.3,7.2,0.5,14.2c0.1,7,0.3,11.5,0.3,13.7c0,0.1,0,0.1-0.1,0.1
			l-0.6-0.3c-0.3-0.1-0.6-0.1-1-0.1h-0.4c-1.2,0.1-2.1,0.3-2.6,0.3h-0.9c-1.2-0.1-1.8-0.4-1.8-0.6v-0.1l-0.1-0.6
			c-0.1-0.4-0.1-0.6-0.3-0.9c-0.1-1.4-0.3-4.6-0.4-9.6v-5c0-0.4-0.1-1-0.3-1.9c-0.1-0.8-0.1-1.4-0.1-1.9v-1.4v-3
			c-0.1-4.3-0.3-7.6-0.4-10.1v-2.5v-1.3v-0.6v-0.1v-0.9v-1.2v-0.1c0-0.4,0-0.8-0.1-1v-4.3c-0.1-0.9-0.1-1.4-0.1-1.8
			c0-0.9,0-1.7,0.1-2.3v-4.3v-1.5v-0.5c0-0.9,0-1.6-0.1-1.9v-1.4l-0.1-2.8l0.1-4c-0.1-2.1-0.1-3.6-0.1-4.5c0-1.2,0-2.2,0.1-3.1
			l-0.1-4.8V217v-1.7c0.1-0.8,0.1-1.4,0.1-1.9v-0.8l-0.1-1v-2.5v-1.7c0.1-0.8,0.1-1.3,0.3-1.7c-0.1-0.5-0.1-1-0.1-1.6
			c0-2.1,0.1-3.4,0.3-3.9c0-0.6,1.6-1.2,4.7-1.3c1.9,0,3.5,0,4.6,0.1c3.2,0.6,4.8,0.9,4.9,0.9c1.9,0.6,3.5,1.4,4.7,2.2
			c1.5,0.9,2.7,2.1,3.6,3.4C396.2,206.8,396.7,208.4,397.1,210.3z M380.2,213c0,2.7,0.1,6.9,0.3,12.4c0.1,5.6,0.3,8.4,0.3,8.8
			c0,0.1,0,0.4,0.1,0.8c0.1,0.4,0.1,0.6,0.1,0.8v0.3c0,0.3,0,0.6-0.1,1.2v1.3v0.1v1.3c0.1,0.6,0.1,1,0.1,1.3
			c0.1,6.3,0.3,10.2,0.4,11.6v0.1v1.3c0,0.9,0.1,1.5,0.4,1.9c0.1,0.1,0.3,0.3,0.6,0.3c0.1,0,0.4,0,0.7-0.1h0.4
			c1.2,0,2.3-0.5,3.5-1.4c1-0.9,1.8-2.1,2.5-3.6c0.6-1.6,0.9-3,1-4.3c0.1-1.2,0.1-3.1,0.1-5.7c0.1-2.6,0.1-4.4,0.3-5.3v-1.6V230
			v-4.7c0-5.8-0.4-10.5-1.3-13.7c-0.8-3.2-2.5-4.9-5-4.9c-0.1,0-0.8-0.1-1.7-0.4c-0.9-0.1-1.6-0.3-1.9-0.3h-0.1
			C380.3,206.7,380.2,209,380.2,213z"/>
		<path fill="#A71E23" d="M414.6,217.4c-0.1,9.4-0.3,15.1-0.3,17.1c0,1,0,2.6-0.1,4.8v4.8v1.9c0.1,1,0.1,1.7,0.1,2.1v0.9
			c0,2.5,0.1,4,0.3,4.9c-0.1,2.7-0.3,4.4-0.3,5v4.8v8.8c0,1.9,0,3.5,0.1,4.4v1.4c-0.1,0.6-0.1,1.2-0.1,1.6v0.8
			c-0.1,0.6-0.1,1.7-0.1,2.8v1v3.4c-0.1,0.6-0.1,1.7-0.1,2.8c0,1.7,0.3,2.7,0.1,3.4c0,1.2-0.1,1.9-0.3,2.3c0.1,0.1,0.1,0.4,0.1,0.6
			v0.1c-0.3,0.4-0.8,0.5-1.4,0.5h-0.9c-1.2,0-2.3,0-3.1,0.1c-1.2-0.4-1.8-0.6-1.9-0.8c-0.5-0.6-0.5-2.6-0.5-5.6v-7.6
			c0-0.5,0-1.4-0.1-2.7v-3.2c0.1-0.9,0.1-2.6,0.1-4.8v-2.3v-2.5V263v-5.8v-3.1v-8.8v-11v-4.8c0-2.8,0-4.9,0.1-6.3v-3.4V204
			c0-0.8,1.3-1.2,4.5-1.2h4C414.8,203.1,414.7,208,414.6,217.4z"/>
		<path fill="#A71E23" d="M450,206.6l0.6,2.2c0.4,0.9,0.6,1.5,0.8,1.9c0.3,1.8,0.4,3.5,0.4,5.2c0.1,0.9,0.3,1.4,0.3,1.7
			c0,0.6-0.1,1.4-0.3,2.5c0,1-0.1,2.1-0.3,3.1c0,0.4-0.6,0.5-1.9,0.5c-0.3-0.1-0.8-0.3-1.5-0.4c-0.6-0.1-1.3-0.3-1.8-0.4
			c-1.4-0.5-2.1-0.9-2.1-1c-0.1-0.6-0.1-1.8,0-3.5c0.1-1.6,0.1-2.6,0.1-3.1c-0.1-2.5-0.8-4.4-1.7-5.7c-0.9-1.2-1.9-1.8-3.1-1.8
			c-0.4,0-0.8,0.1-1.3,0.4c-0.8,0.6-1.6,1.7-2.5,3.1c-0.9,1.4-1.7,4.1-2.6,8c-0.9,4-1.3,8.5-1.3,13.8c0,0.5-0.1,1.3-0.3,2.3
			c-0.1,1-0.3,1.8-0.3,2.5v0.5c0.1,1.4,0.1,3.9,0.3,7.1c0.1,3.4,0.3,5.8,0.4,7.5l0.4,6.6c0.1,1.6,0.3,2.7,0.3,3.5
			c0,0.3,0,0.6-0.1,1.3v1.2c0.3,1.2,0,2.3,0.1,4.5c0.1,0.9,0.1,3.4,0.3,4.8c0.1,1.4,0.3,2.5,0.3,2.8c0,3,0.4,8,1.3,10.5
			c1,2.8,3,4,4.4,4.4c0.9,0,1.5-0.3,2.2-0.8c1.7-1.4,3.1-6.2,3.1-12.1v-2.2v-4.8v-1.2l0.1-3.6h1.4c0.4-0.1,1-0.1,1.9-0.1
			c0.9,0,1.6,0,1.9,0.1c1.4,0.1,2.2,0.4,2.2,0.8c0,1.7,0.1,3,0.3,3.7c0.1,0.9,0.1,2.5,0.1,4.4v3.2c0,4.4-0.3,7.5-0.6,9.4
			c-1.2,4.5-3.9,7.5-8.3,9.2c-1.3,0.5-2.6,0.8-4,0.8h-0.6c-0.4,0-0.8,0-1.4-0.1h-1.3h-0.6c-1.3-0.3-2.5-0.8-3.6-1.7
			c-1.2-0.6-2.1-1.5-2.8-2.7c-0.9-1-1.6-2.3-1.9-3.7c-0.6-2.7-1.3-5.9-1.7-9.6c-0.1-0.4-0.1-1-0.3-1.8v-1.8
			c-0.1-0.9-0.3-2.2-0.3-3.9c0-0.9-0.1-2.3-0.3-4.3c0-1.9,0-3.5-0.1-4.5c-0.1-1.9-0.3-7.2-0.6-15.9c-0.1-0.9-0.1-2.2-0.1-3.9v-1.5
			c-0.1-0.8-0.1-1.9-0.1-3.6V239c-0.1-1.2-0.1-2.8-0.1-4.8c0.1-8.4,0.8-15.1,2.2-20.2c0.1-0.4,0.3-1,0.4-1.8
			c0.3-0.8,0.4-1.3,0.5-1.6c0.5-1.4,0.9-2.3,1.2-2.7c2.5-4.3,5-7,7.8-8c1.4-0.4,2.5-0.5,3.2-0.5h0.5c3.7,0,6.7,1.3,9,3.9
			C448.8,204.1,449.5,205.2,450,206.6z"/>
		<path fill="#A71E23" d="M474.5,204h1.2c0.6,0,1.8-0.1,3.4-0.3c0.4,0.1,1.2,0.1,2.3,0.3c1,0.1,1.7,0.1,1.8,0.1h2.6h1.2
			c1.3,0,2.2,0,2.7,0.1c0.9,0.1,1.5,0.4,1.9,0.5c0.3,0.1,0.4,0.6,0.4,1.6v0.6c0.1,0.4,0.3,1.2,0.4,2.1c0,0.9,0,1.4,0.1,1.8
			c0,0.4-0.4,0.6-1,0.6h-0.3c-0.1,0.1-0.3,0.3-0.6,0.3c-0.3,0-0.8-0.1-1.7-0.3c-0.3,0.1-0.6,0.1-1.3,0.1h-2.3h-0.9h-1.8h-5.3
			l0.5,23.8c0,2.1,0.1,4,0.3,5.8v6.7v1.3v0.4v3.7v2.1c0,1.9,0.1,3.4,0.1,4.3v3c0.4,16.1,0.5,27.3,0.5,33.5v0.1
			c0,1.2-1.3,1.7-3.7,1.7c-2.7,0-4.1-0.4-4.1-1.2c-0.1-0.8-0.3-2.7-0.3-5.8c-0.1-0.4-0.1-1.2-0.1-2.3v-2.7v-0.6v-0.9
			c-0.1-0.5-0.1-0.9-0.1-1.3v-0.8c0.1-0.1,0.1-0.4,0.1-0.9V280v-0.9c-0.1-0.9-0.1-2.2-0.1-4.1c-0.1-3.7-0.3-6.9-0.4-15.9l-0.3-24
			c0-0.6,0-1.6-0.1-2.7v-2.6v-2.2v-3.9c-0.1,0-0.1-0.5-0.1-0.5v0.8V223v-2.8v-2.7c0-0.4,0-1.2-0.1-2.5v-2.1c0.1-0.1,0.1-0.3,0.1-0.4
			v-0.4c-1-0.1-1.7-0.3-2.1-0.3H466c-0.5,0.1-0.9,0.1-1.2,0.1c-0.1,0-0.6-0.1-1.4-0.1c-0.9-0.3-1.4-0.3-1.8-0.3
			c-3.2-0.1-5.3-0.4-6.2-0.6c-0.1-0.5-0.3-1-0.3-1.4c0-0.9,0-1.4,0.1-1.6v-0.6c0-0.5,0.1-1.2,0.3-1.8c0.1-0.9,0.4-1.4,0.5-1.6
			l0.4-0.1c0.3-0.1,0.5-0.1,0.8-0.1h0.5c0.8,0,1.4,0,1.9-0.1c0.4,0.1,0.9,0.1,1.5,0.1c0.9,0,1.7,0,2.3-0.1c1.9,0,3.5,0,4.5,0.1
			c2.3,0,4.1,0,5.3,0.1C473.6,203.9,474,203.9,474.5,204z"/>
		<path fill="#A71E23" d="M506.6,214.5l-0.1,3.7v1.2v1.3c0,1.2,0,2.5,0.1,4.1v4.7c0.1,1,0,3,0.1,5.8c0,2.8-0.1,5,0,6.7v0.9v0.4
			c0,0.4,0,1,0.1,1.7v1.7v0.4l-0.1,1c0.1,2.2,0.1,6.1,0.1,11.4c0,5.3,0.1,9.2,0.1,11.9c0.1,1.2,0.1,1.9,0.1,2.3v0.1
			c0.1,0.4,0.1,0.9,0.1,1.6v0.8v0.4c0,0.3-0.1,0.6,0,1c0.1,0.4,0.1,0.6,0.1,0.8c0.8,6.6,1.7,8.4,2.3,9.3c1,1.3,2.3,2.1,4,2.1h0.1
			c2.6,0,4.9-0.5,7.1-3.9c0.8-1.7,1.4-2.8,1.8-5.4c0-0.1,0-0.3,0.1-0.6c0.1-0.4,0.1-0.6,0.1-1c0.3-3,0.4-6.5,0.6-10.6v-5.3
			c0.1-2.6,0.1-4.5,0.3-5.9l0.1-5v-2.3l0.1-2.8v-5.2l0.1-3.1c0-3.2,0.1-7.1,0-11.6c0-4.7,0.1-10.2,0.1-11.9v-3v-0.6l0.1-2.8
			c-0.1-1.3-0.1-2.2-0.1-2.8V204c0.1-0.1,0.5-0.3,1.3-0.3h0.4l3.2,0.3c0.8-0.1,1.4-0.1,1.8-0.1c0.5,0,0.8,0,0.9,0.1
			c0.3,1,0.4,2.2,0.5,3.7c0,1.3-0.1,3,0,4.9c0,1.9,0,3.4,0.1,4.5l-0.3,3.1v3.1c0,0.9,0,3.1,0.1,6.3v0.5c0,0.4,0,0.9,0.1,1.7
			l-0.1,1.5v0.5c0,0.4,0,1.2,0.1,2.2v1.9l-0.1,4.3l-0.1,8.4l-0.1,4.3l-0.1,4.9c0.1,0.5,0.1,1.2,0.1,1.9l-0.1,1.4v1.3
			c-0.1,0.4-0.1,1-0.3,2.2c-0.1,1-0.1,1.7-0.1,2.1l-0.3,3.9c-0.3,4.7-0.8,8.9-1.8,12.8c-0.3,0.8-0.8,1.9-1.5,3.5
			c-1.3,1.9-2.1,3.1-2.2,3.2c-0.1,0.4-0.5,0.6-1.2,1.2c-0.6,0.5-1,1-1.3,1.4c-1,1-2.5,1.9-4.3,2.6c-1.9,0.5-3.7,0.9-5.6,0.9h-0.3
			c-1.7,0-3-0.3-4-0.5c-1-0.3-2.2-0.8-3.5-1.5c-1.3-0.9-2.3-2.2-3.2-4.3c-0.8-1.9-1.7-4.4-2.3-7.4c-1.5-7-2.1-16.5-1.9-28.7v-35.1
			l-0.1-9.7v-0.3l0.1-1.5c-0.1-0.7-0.1-1.2-0.1-1.4c0-0.1,0-0.1,0.1-0.3c0-0.6,0-1.2,0.1-1.6c-0.1-0.3-0.1-0.5-0.1-0.8
			c-0.1-0.4-0.1-0.6-0.1-0.8V204c0-0.1,0.8-0.4,2.2-0.6c0.1,0,0.8,0.1,1.7,0.3c0.9,0.1,1.8,0.3,2.5,0.6h0.5c0.9,0,1.4,0.3,1.4,0.9
			C506.7,206.3,506.7,209.4,506.6,214.5z"/>
		<path fill="#A71E23" d="M568.4,210.1c1.2,3.1,1.7,7.6,1.7,13.7c0,0.6,0,1.6-0.1,2.8v2.6c-0.3,3.2-0.4,4.9-0.4,5v0.6
			c0,0.5,0,1.3-0.1,2.1c-0.1,0.9-0.1,1.5-0.1,1.8c-0.1,1-0.4,2.6-0.8,4.4c-1,5.9-4.1,10.9-9.4,14.7l5.3,2.8
			c3.7,2.1,5.7,10.7,5.7,25.8c0,3.7,0,6.5-0.1,8c0,1.3,0,2.3-0.1,3c0,1,0.1,1.7,0.3,2.1c-0.5,0.5-1.2,0.8-1.9,0.8h-0.3h-2.5h-1.3
			c-1.3-0.3-1.9-0.5-1.9-0.8c0-0.5,0-2.2-0.1-5.2c-0.1-3.1-0.3-5.9-0.4-8.5c-0.6-9-1.3-14.6-1.9-16.4c-0.6-1.5-1.6-2.8-2.7-3.6
			c-3.2-1.9-5.3-2.8-6.2-2.8c-0.1,0-0.3,0.4-0.4,1.2c-0.3,0.5-0.4,1.5-0.4,3.1v0.5c0,0.3,0,1.7-0.1,4v4.3c-0.1,1-0.1,2.8-0.1,5.4
			c0,3.1,0,5.4-0.1,7.2c0,1.8,0,3-0.1,3.7v1.2v1.9v0.8c0.1,0.3,0.1,0.5,0.1,0.6c0,0.1,0,0.3-0.1,0.5v0.4c0,0.4-0.8,0.8-2.3,1.2
			c-0.5,0-1,0.1-1.5,0.1c-2.8,0-4.3-0.3-4.4-0.8c-0.1-0.6-0.1-1.9-0.1-3.9v-4.3c0.1-1.6,0.1-3.7,0.3-6.6c0.1-2.8,0.1-5.4,0.3-7.9
			c0-1,0.1-2.7,0.3-4.9v-1.7v-3.6v-4.8c0.1-2.3,0.1-4,0.1-5.3c0-0.3,0-0.6,0.1-1v-0.9v-0.9c-0.1-0.4-0.1-0.6-0.1-0.9
			c0-0.5,0-1,0.1-1.7v-1.4v-0.8c0.1-1.8,0.3-3.1,0.3-4c-0.1-1-0.1-2.6-0.1-4.4v-9v-4c0-2.5,0.1-4.3,0.3-5.4
			c-0.1-1.4-0.3-2.3-0.3-2.8c0-0.4,0-0.9,0.1-1.7v-1.8c0.1-1.3,0.1-3,0.1-4.9c0.1-4.1,0.5-6.3,1.2-6.6c0.5-0.1,1.4-0.3,2.8-0.4
			c2.5-0.3,4.9-0.4,7.5-0.4c0.4,0,0.8-0.1,1-0.1l4.3,0.4c0.8,0.1,1.9,0.5,3.4,1C565.5,204.9,567.3,207,568.4,210.1z M550.2,210.8
			c-0.3,1.5-0.4,2.8-0.4,4.1c0,0.9-0.1,3.7-0.1,8.4c-0.3,4.7-0.3,7.5-0.3,11.2c0,6.2,0,10.3,0.1,12.7c0.1,0.5,0.1,1.3,0.1,2.3v0.9
			c0.1,0.5,0.4,0.9,0.5,1.3l0.6,0.3c0.1,0,0.5-0.1,1.4-0.1c0.9-0.1,1.6-0.4,1.9-0.6c0-0.1,0.1-0.3,0.5-0.5l1.2-0.9
			c0.4-0.4,0.8-0.6,1-0.9c1.8-2.2,3.1-4.7,3.9-7.5c1.2-4.4,1.8-9.4,1.8-18c0-4.9-0.3-8.3-1.4-10.5c-1.3-2.5-3.5-3.4-7.4-3.4
			c-1.6,0-2.5-0.1-2.6-0.3C550.7,209.5,550.4,210.1,550.2,210.8z"/>
		<path fill="#A71E23" d="M579.2,295.5c0-0.1,0.3-1,0-2.8c-0.1-2.5-0.1-7.1-0.1-15.2c0-2.2,0-3.7-0.1-4.9c0.1-0.5,0.1-1.4,0.1-2.8
			c0-1,0-1.8-0.1-2.3c0.1-0.4,0.1-1.2,0.1-2.5c0-8,0.1-14,0.1-21.8v-6.5c0.1-2.5,0.3-6.2,0.3-11.1V216c0-2.3,0-3.9,0.1-4.8
			c-0.1-0.4-0.1-1-0.1-1.7v-5v-0.6l-0.1-0.3c0-0.1,2.3-0.4,6.8-0.5c2.7,0,8.3,0,9.7,0.1c0.5-0.1,1.4-0.1,2.6-0.1
			c1.2,0.1,1.9,0.3,2.3,0.3c1.3,0.1,2.1,0.4,2.2,0.5l0.1,0.1v0.3l0.3,0.6v0.3c0,0.3,0,0.5,0.1,0.9c0.1,0.4,0.1,0.6,0.1,0.8v0.9
			c0,1.7-0.1,3.6-0.4,3.6l-0.1,0.1l-0.8,0.3h-0.8c-0.4,0.1-0.8,0.1-1,0.1h-2.6c-0.6,0-1.4,0.1-2.5,0.3c-3-0.1-6.8-0.3-7-0.4v0.3
			c0,0.3-0.1,0.4-0.3,0.5c-0.1,0.6,0.1,1.4,0,1.7c0.3,0.9,0,1.7,0,3c0,0.4,0,1-0.1,1.9L588,242c0.3,4.9,0,6.5,0.1,10.6h1.8
			c0.4,0,4.5,0,5.2-0.1h1.7c1,0,1.8,0.1,2.5,0.5c0.3,0.1,0.5,0.8,0.6,1.9v0.6c0,1.4,0.1,1.8,0.1,3.4v0.6c-0.1,1.3-0.4,1.9-0.8,1.9
			c-0.7,0.3-1.7,0.4-3,0.4h-6.6c-1,0-1.4-0.3-1.7,0.3c-0.1,0.4,0.1,1.3,0,1.8c-0.1,0.9-0.3,3.2-0.3,4.4v8.1c0,0.5,0,1.2-0.1,2.1
			v11.4c0.6-0.1,0.5-0.1,1.9-0.1c1.4,0,5.8,0,6.2-0.1h1.8c0.8,0.1,1.3,0.1,1.4,0.1h5.3c0.6,0.1,0.9,1.6,0.9,4.4c0,3-0.1,4.5-0.5,4.5
			c-0.6,0.4-1.6,0.5-2.6,0.5h-1.3c-0.5-0.1-1.2-0.1-1.7-0.1h-0.9c-0.9-0.1-5.9-0.1-8.3-0.1h-5c-0.4,0.1-1,0.1-1.9,0.1
			c-1.2,0-2.6-0.3-3.6-0.9v-0.3c-0.1-0.3-0.1-0.4-0.1-0.5V295.5z"/>
		<path fill="#A71E23" d="M631.4,203.7c0.9,0.9,1.3,1.7,1.4,2.5c0.8,1.7,1.2,2.7,1.2,3.1c0.1,0.4,0.4,1.2,0.5,2.1
			c0.1,0.9,0.3,1.6,0.4,1.8c0.3,1.6,0.4,3.2,0.4,4.9l0.3,4.9v1.9c-0.1,0.4-0.3,0.5-0.3,0.6v0.3c0.1,0.1,0.1,0.3,0.1,0.4
			c-0.4,0.4-1.2,0.6-2.3,0.6h-0.6c-0.4,0-1.5-0.1-3.4-0.4c-1.4-0.8-2.2-1.3-2.2-1.7v-0.1c-0.1-0.8-0.3-3-0.3-6.7
			c0-2.3-0.1-4.1-0.5-5.4c-0.4-1.4-0.9-2.6-1.8-3.2c-0.4-0.4-0.9-0.7-1.7-0.7h-0.5c-0.1,0.1-0.4,0.1-0.5,0.1c-1.4,0.4-2.6,1-3.5,2.2
			l-1.5,2.6c-0.4,0.9-0.6,1.9-0.8,3.1v0.9c0,2.1,0.4,4.5,1.2,7.2c0.4,1.3,0.9,2.8,1.8,4.8c0.6,1.4,2.3,4.7,5,9.7
			c1.4,2.6,2.8,5.7,4.5,9.2c0.1,0.4,0.4,1,0.8,1.9c0.4,0.9,0.8,1.5,0.9,1.9c0.1,0.3,0.6,1.6,1.5,4c0,0.4,0,0.8,0.1,1.3
			c0.1,0.5,0.1,0.9,0.3,1.3c0.3,0.3,0.6,0.9,1,1.9c0.1,0.6,0.5,2.2,1.2,4.8c0,0.1,0.3,1.8,0.8,4.9c0.4,3.2,0.6,5.9,0.6,8.4
			c0,4.3-0.5,8-1.4,11.2c-0.4,1.4-0.8,2.7-1.4,3.9c-0.3,0.9-0.9,1.8-1.9,2.7c-0.1,0.4-0.9,1-2.2,1.9c-0.9,0.4-1.8,0.6-3,0.8h-0.9
			c-0.4,0.1-0.8,0.1-0.9,0.1c-0.1,0-0.5,0-1-0.1h-1c-4.8-0.6-9.7-1.8-11.1-3.7c-1.4-1.9-2.2-5.6-2.3-10.9c0-2.5,0-4.5,0.1-6.2
			c-0.1-0.6-0.3-1.2-0.3-1.3c0-0.4,0.1-0.9,0.3-1.8c-0.1-0.3-0.3-0.6-0.3-1.2c0-0.5,0.1-0.9,0.3-1.2c-0.1-0.1-0.1-0.4-0.1-0.8v-0.6
			c0-0.1,0-0.3-0.1-0.4c0.1-0.4,0.9-0.6,2.3-1c0.1,0,0.3,0,0.6-0.1h0.8c0.5,0,1.2,0.1,2.1,0.3c1.2,0.1,1.9,0.5,2.1,1
			c0,0.4,0,1.2-0.1,2.2v2.8c0,2.3,0.1,4.4,0.3,6.1c0.6,6.3,1.9,9.6,4.1,9.6c0.3,0,2.6-0.1,3.2-0.3c0.6-0.1,1.2-0.5,1.7-1.2
			c0.4-0.5,0.6-1.3,0.9-2.5c0.4-0.9,0.6-2.1,0.6-3.5c0.1-0.6,0.1-1.7,0.1-3c0.1-1.3,0.1-2.2,0.1-2.6c0-0.6,0-1.8-0.1-3.2v-3.6
			c-0.3-5.8-3.2-14.7-8.9-26.5c-0.3-0.5-0.6-1.3-1-2.3c-0.4-1-0.8-1.8-1-2.3l-1-2.2c-0.4-0.9-0.8-1.7-1-2.5l-1.9-4.3
			c-1.9-5.3-3.2-9.4-3.6-12.5c-0.1-1.7-0.3-3-0.3-3.6c0-3.7,1.2-7.5,3-10.1c1.5-2.2,4-3.6,7.4-4.3c1.9-0.4,4-0.6,6.3-0.6
			c2.1,0,3.7,0.3,4.9,0.9C630.2,202.6,630.8,203.1,631.4,203.7z"/>
	</g>
</g>
</svg>
