<?xml version="1.0" encoding="UTF-8" standalone="no"?>
<!-- Created with Inkscape (http://www.inkscape.org/) -->
<svg id="svg3272" xmlns:rdf="http://www.w3.org/1999/02/22-rdf-syntax-ns#" xmlns="http://www.w3.org/2000/svg" height="69.85" width="66.04" version="1.1" xmlns:cc="http://creativecommons.org/ns#" xmlns:dc="http://purl.org/dc/elements/1.1/">
 <metadata id="metadata3277">
  <rdf:RDF>
   <cc:Work rdf:about="">
    <dc:format>image/svg+xml</dc:format>
    <dc:type rdf:resource="http://purl.org/dc/dcmitype/StillImage"/>
    <dc:title/>
   </cc:Work>
  </rdf:RDF>
 </metadata>
 <g id="logoBg" transform="translate(-270.31333,-248.4083)">
  <path id="path28" fill-rule="nonzero" fill="#575757" d="m336.35,318.26-66.04,0,0-69.85,66.04,0,0,69.85z"/>
 </g>
 <g id="logoText" transform="translate(-270.31333,-248.4083)">
  <g id="text38" font-size="15px" transform="translate(-1.43625,-3.70993)">
   <path id="path3367" d="m317.29,275.34-3.4094-8.9303,1.2621,0,2.8292,7.5187,2.8352-7.5187,1.2561,0-3.4034,8.9303-1.3698,0m-12.435-8.9303,7.5546,0,0,1.0168-3.1702,0,0,7.9134-1.2142,0,0-7.9134-3.1702,0,0-1.0168m-3.072,32.631,0,10.767-6.5552,0,0-28.308,6.5552,0,0,3.0029c0.90331-1.1963,1.9043-2.0752,3.0029-2.6367,1.0986-0.57371,2.362-0.86057,3.7903-0.86059,2.5268,0.00002,4.602,1.0071,6.2256,3.0212,1.6235,2.002,2.4353,4.5838,2.4353,7.7454-0.00002,3.1616-0.81179,5.7495-2.4353,7.7637-1.6236,2.002-3.6988,3.0029-6.2256,3.0029-1.4282,0-2.6917-0.28076-3.7903-0.84229-1.0986-0.57373-2.0996-1.4587-3.0029-2.655m4.3579-13.275c-1.4038,0.00001-2.4841,0.51881-3.241,1.5564-0.74464,1.0254-1.117,2.5086-1.117,4.4495-0.00001,1.9409,0.37231,3.4302,1.117,4.4678,0.75682,1.0254,1.8371,1.5381,3.241,1.5381,1.4038,0,2.4719-0.51269,3.2044-1.5381,0.74461-1.0254,1.1169-2.5146,1.1169-4.4678-0.00002-1.9531-0.37233-3.4424-1.1169-4.4678-0.73244-1.0254-1.8006-1.5381-3.2044-1.5381m-13.987-21.489,0,4.6582,5.5518,0,0,2.0947-5.5518,0,0,8.9062c-0.00001,1.3379,0.18065,2.1973,0.54199,2.5781,0.37109,0.38086,1.1182,0.57129,2.2412,0.57128h2.7686v2.2559h-2.7686c-2.0801,0-3.5156-0.38574-4.3066-1.1572-0.79102-0.78125-1.1865-2.1973-1.1865-4.248v-8.9062h-1.9775v-2.0947h1.9775v-4.6582h2.71" fill-rule="nonzero" fill="#FFF"/>
  </g>
 </g>
</svg>
